<?xml version="1.0" encoding="UTF-8" standalone="no"?>
<svg
   id="Layer_1"
   data-name="Layer 1"
   viewBox="0 0 24 24"
   width="512"
   height="512"
   version="1.1"
   sodipodi:docname="paw-no.svg"
   inkscape:version="1.2.1 (9c6d41e410, 2022-07-14)"
   xmlns:inkscape="http://www.inkscape.org/namespaces/inkscape"
   xmlns:sodipodi="http://sodipodi.sourceforge.net/DTD/sodipodi-0.dtd"
   xmlns="http://www.w3.org/2000/svg"
   xmlns:svg="http://www.w3.org/2000/svg">
  <defs
     id="defs182" />
  <sodipodi:namedview
     id="namedview180"
     pagecolor="#ffffff"
     bordercolor="#000000"
     borderopacity="0.25"
     inkscape:showpageshadow="2"
     inkscape:pageopacity="0.0"
     inkscape:pagecheckerboard="0"
     inkscape:deskcolor="#d1d1d1"
     showgrid="false"
     inkscape:zoom="0.57797693"
     inkscape:cx="1065.7865"
     inkscape:cy="375.44751"
     inkscape:window-width="1920"
     inkscape:window-height="1017"
     inkscape:window-x="1912"
     inkscape:window-y="-8"
     inkscape:window-maximized="1"
     inkscape:current-layer="Layer_1" />
  <path
     d="m 8.164,16.015101 a 2.49,2.49 0 0 0 -1.579,0.594 4.832,4.832 0 0 0 -1.557,3.261 c -0.243,2.494 1.117,3.964 2.586,4.128 a 2.651,2.651 0 0 0 1.986,-0.594 4.177,4.177 0 0 0 1.376,-2.9 c 0.224,-2.323 -1.014,-4.489 -2.812,-4.489 z m -5.311,-6 a 2.118,2.118 0 0 0 -1.423,0.594 5.041,5.041 0 0 0 -1.4,3.261 c -0.22,2.494 1.006,3.964 2.331,4.128 a 2.234,2.234 0 0 0 1.786,-0.594 4.364,4.364 0 0 0 1.241,-2.9 c 0.201,-2.323 -1.029,-4.489 -2.535,-4.489 z m 12.983,6 c -1.81,0 -3.034,2.166 -2.807,4.492 v 0 a 4.177,4.177 0 0 0 1.376,2.9 2.654,2.654 0 0 0 1.981,0.591 c 1.469,-0.164 2.829,-1.634 2.586,-4.128 a 4.835,4.835 0 0 0 -1.557,-3.262 2.494,2.494 0 0 0 -1.579,-0.593 z m 5.217,-6 c -1.886,0 -2.827,2.166 -2.615,4.492 v 0 a 4.3,4.3 0 0 0 1.281,2.9 2.35,2.35 0 0 0 1.846,0.594 c 1.368,-0.164 2.635,-1.634 2.409,-4.128 a 4.976,4.976 0 0 0 -1.451,-3.262 2.23,2.23 0 0 0 -1.47,-0.596 z M 16,0.01510082 a 4.865,4.865 0 0 0 -2.447,0.605 3.332,3.332 0 0 1 -3.106,0 C 7.434,-1.0668992 3.922,0.78810082 4,5.0151008 c 0,4.636 4.507,9.0000002 8,9.0000002 3.493,0 8,-4.3640002 8,-9.0000002 0,-2.944 -1.645,-4.99999998 -4,-4.99999998 z"
     id="path177"
     style="fill:#c30020;fill-opacity:1" />
</svg>
